<svg width="991" height="728" viewBox="0 0 991 728" fill="none" xmlns="http://www.w3.org/2000/svg">
<g id="undraw_by_my_car_ttge 1" clip-path="url(#clip0)">
<path id="Vector" opacity="0.1" d="M71.62 291.75C92.46 338.82 65.87 393.04 34.62 433.91C24.14 447.59 12.62 461.91 11.15 479.13C9.4 500.13 23.62 519.44 40.5 532.06C71.27 555.06 113.31 562.17 149.93 550.57C181.58 540.57 208.19 517.9 240.11 508.76C293.53 493.47 350.11 518.82 395.82 550.39C428.17 572.73 462.82 599.89 501.82 595.12C529.28 591.76 552.58 572.49 568.38 549.79C576.01 538.79 582.65 526.56 593.77 519.16C600.38 514.76 608.14 512.43 615.91 510.77C686.81 495.62 762.04 532.6 832 513.58C879.25 500.73 916.93 463.38 940.35 420.39C963.77 377.4 974.71 328.84 983.82 280.73C990.29 246.54 995.66 209.65 980.82 178.19C965.08 144.91 928.65 124.74 892.04 120.97C855.43 117.2 818.7 127.65 784.97 142.39C742.82 160.82 701.51 186.62 655.5 186.71C624.17 186.77 594.3 174.71 564.34 165.58C514.16 150.25 462.16 142.63 410.23 135.6C360.54 128.87 310.37 122.6 260.38 126.6C225.01 129.41 193.78 142.93 159.46 149.18C137.09 153.26 114.61 150.18 92.66 157.09C65.66 165.54 37.82 185.15 36.33 216C34.92 245.33 60.56 266.76 71.62 291.75Z" fill="#6C63FF"/>
<g id="Group" opacity="0.5">
<path id="Vector_2" opacity="0.5" d="M697.89 183.16C692.89 184.6 686.68 188.32 683.64 198.53C677.64 218.53 691.52 232.21 686.97 252.98C685.726 258.502 683.342 263.704 679.97 268.25C674.4 275.8 668.34 279.38 662.48 284.67C655.031 291.426 649.694 300.191 647.11 309.91C644.278 320.637 644.041 331.884 646.42 342.72C648.51 351.78 652.07 358.37 655.17 365.72C659.03 375.099 662.042 384.804 664.17 394.72C665.352 399.539 666.023 404.47 666.17 409.43C666.27 415.66 665.3 422.43 664.35 429.11L655.88 488.22C654.75 496.09 653.61 504.09 653.57 511.58C653.51 520.23 654.9 527.66 656.28 534.91C659.28 550.55 662.45 566.78 669.28 575.03C676.11 583.28 687.69 580.42 694.82 563.58C701.6 547.58 701.74 526.18 707.72 509.06C717.14 482.06 735.88 478.46 746.27 452.73C756.27 428.05 753.19 397.73 758.27 369.61C761.89 349.44 769.6 331.04 774.17 311.11C780.74 282.4 780.09 252.6 774.84 230.54C769.59 208.48 760.17 193.33 749.77 181.84C745.36 176.97 740.65 172.64 735.11 172.21C729.22 171.76 724.11 179.21 718.26 181.4C711.48 183.93 704.72 181.22 697.89 183.16Z" fill="#B1B1B1"/>
<path id="Vector_3" opacity="0.5" d="M729.78 173.61C729.78 173.61 719.78 428.89 677.85 579.43" stroke="#535461" stroke-width="2" stroke-miterlimit="10"/>
<path id="Vector_4" opacity="0.5" d="M683.38 199.78C683.38 199.78 728.16 240.59 719.71 318.35" stroke="#535461" stroke-width="2" stroke-miterlimit="10"/>
<path id="Vector_5" opacity="0.5" d="M645.76 315.9C645.76 315.9 719.36 330.7 713.9 374.72" stroke="#535461" stroke-width="2" stroke-miterlimit="10"/>
<path id="Vector_6" opacity="0.5" d="M774.93 229.93C774.93 229.93 745.16 256 718.62 329.84" stroke="#535461" stroke-width="2" stroke-miterlimit="10"/>
<path id="Vector_7" opacity="0.5" d="M745.82 453.1C745.82 453.1 725.5 469.1 709.19 413.29" stroke="#535461" stroke-width="2" stroke-miterlimit="10"/>
<path id="Vector_8" opacity="0.5" d="M658.16 485.65C658.16 485.65 699.6 480.24 703.42 454.28" stroke="#535461" stroke-width="2" stroke-miterlimit="10"/>
</g>
<path id="Vector_9" d="M798.06 11.94C787.8 13.46 775.46 18.21 770.39 32.88C760.44 61.64 790.7 83.41 783.73 113.46C781.64 122.46 776.49 129.78 771.06 135.12C760.42 145.58 748.31 150.12 736.81 157.22C725.31 164.32 713.37 175.46 707.98 192.57C702.79 209.03 705.04 227.22 710.43 240.81C715.82 254.4 723.98 264.53 731.27 275.71C740.147 289.474 747.57 304.122 753.42 319.42C756.03 326.15 758.42 333.25 759.27 341.31C760.21 350.5 759.02 360.39 757.84 370.07L747.32 456.07C745.92 467.52 744.51 479.17 745.32 490.2C746.23 502.93 749.99 514.03 753.7 524.87C761.7 548.25 770.26 572.54 785.33 585.49C800.4 598.44 824.08 595.61 836.82 571.65C848.95 548.84 846.72 517.39 857.06 492.89C873.36 454.28 911.71 451.16 930.16 414.51C947.87 379.35 937.96 334.37 945.07 293.51C950.17 264.23 963.96 238.06 971.07 209.25C981.27 167.74 976.4 123.79 962.9 90.68C949.4 57.57 928.12 34.14 905.24 15.99C895.54 8.30002 885.24 1.35002 873.76 0.070022C861.52 -1.28998 851.76 9.01002 839.97 11.6C826.27 14.67 811.97 9.88002 798.06 11.94Z" fill="#59DEDE"/>
<path id="Vector_10" d="M862.92 1.64001C862.92 1.64001 872.57 376.4 803.56 593.11" stroke="#535461" stroke-width="2" stroke-miterlimit="10"/>
<path id="Vector_11" d="M769.99 34.68C769.99 34.68 867.61 100.1 859.25 213.6" stroke="#535461" stroke-width="2" stroke-miterlimit="10"/>
<path id="Vector_12" d="M705.91 201.23C705.91 201.23 859.99 231.75 853.91 295.92" stroke="#535461" stroke-width="2" stroke-miterlimit="10"/>
<path id="Vector_13" d="M963.04 89.94C963.04 89.94 904.48 124.8 858.35 230.39" stroke="#535461" stroke-width="2" stroke-miterlimit="10"/>
<path id="Vector_14" d="M929.26 415.13C929.26 415.13 889.1 436.27 848.73 352.13" stroke="#535461" stroke-width="2" stroke-miterlimit="10"/>
<path id="Vector_15" d="M751.63 452.68C751.63 452.68 836.76 449.62 841.63 411.86" stroke="#535461" stroke-width="2" stroke-miterlimit="10"/>
<path id="Vector_16" opacity="0.1" d="M488.21 625.79C724.406 625.79 915.88 607.398 915.88 584.71C915.88 562.022 724.406 543.63 488.21 543.63C252.014 543.63 60.54 562.022 60.54 584.71C60.54 607.398 252.014 625.79 488.21 625.79Z" fill="#6C63FF"/>
<path id="Vector_17" d="M67.25 535.81C67.25 535.81 75.63 546.81 63.38 563.31C51.13 579.81 41.03 593.83 45.16 604.14C45.16 604.14 63.64 573.41 78.68 572.98C93.72 572.55 83.8 554.29 67.25 535.81Z" fill="#59DEDE"/>
<path id="Vector_18" opacity="0.1" d="M67.25 535.81C67.9802 536.87 68.556 538.028 68.96 539.25C83.64 556.49 91.45 572.58 77.35 572.99C64.21 573.37 48.45 596.86 44.67 602.8C44.7947 603.258 44.945 603.709 45.12 604.15C45.12 604.15 63.6 573.42 78.64 572.99C93.68 572.56 83.8 554.29 67.25 535.81Z" fill="black"/>
<path id="Vector_19" d="M82.83 549.78C82.83 553.64 82.4 556.78 81.83 556.78C81.26 556.78 80.83 553.65 80.83 549.78C80.83 545.91 81.37 547.78 81.9 547.78C82.43 547.78 82.83 545.92 82.83 549.78Z" fill="#FFD037"/>
<path id="Vector_20" d="M88.16 554.38C84.77 556.23 81.82 557.38 81.57 556.87C81.32 556.36 83.85 554.52 87.24 552.68C90.63 550.84 89.29 552.18 89.55 552.68C89.81 553.18 91.56 552.52 88.16 554.38Z" fill="#FFD037"/>
<path id="Vector_21" d="M22.98 535.81C22.98 535.81 14.6 546.81 26.85 563.31C39.1 579.81 49.16 593.83 45.16 604.14C45.16 604.14 26.68 573.41 11.64 572.98C-3.39997 572.55 6.44002 554.29 22.98 535.81Z" fill="#59DEDE"/>
<path id="Vector_22" opacity="0.1" d="M22.98 535.81C22.2497 536.87 21.674 538.028 21.27 539.25C6.58998 556.49 -1.22002 572.58 12.88 572.99C26.02 573.37 41.78 596.86 45.56 602.8C45.4352 603.258 45.285 603.709 45.11 604.15C45.11 604.15 26.63 573.42 11.59 572.99C-3.45002 572.56 6.43998 554.29 22.98 535.81Z" fill="black"/>
<path id="Vector_23" d="M7.40997 549.78C7.40997 553.64 7.83997 556.78 8.40997 556.78C8.97997 556.78 9.40997 553.65 9.40997 549.78C9.40997 545.91 8.86997 547.78 8.33997 547.78C7.80997 547.78 7.40997 545.92 7.40997 549.78Z" fill="#FFD037"/>
<path id="Vector_24" d="M2.05997 554.38C5.44997 556.23 8.39997 557.38 8.64997 556.87C8.89997 556.36 6.36997 554.52 2.97997 552.68C-0.410027 550.84 0.929975 552.18 0.669975 552.68C0.409975 553.18 -1.33003 552.52 2.05997 554.38Z" fill="#FFD037"/>
<path id="Vector_25" d="M10.07 602.71C10.07 602.71 33.5 601.99 40.56 596.96C47.62 591.93 76.56 585.96 78.35 593.96C80.14 601.96 113.56 634.07 87.11 634.28C60.66 634.49 25.65 630.16 18.6 625.87C11.55 621.58 10.07 602.71 10.07 602.71Z" fill="#A8A8A8"/>
<path id="Vector_26" opacity="0.2" d="M87.59 631.52C61.14 631.73 26.13 627.4 19.08 623.11C13.71 619.84 11.57 608.11 10.86 602.7H10.08C10.08 602.7 11.56 621.6 18.61 625.89C25.66 630.18 60.67 634.52 87.16 634.31C94.8 634.25 97.43 631.53 97.29 627.51C96.16 629.94 93.27 631.46 87.59 631.52Z" fill="black"/>
<path id="Vector_27" d="M315.03 450.95C315.03 450.95 432.28 376.04 513.34 376.04C513.34 376.04 610.93 360.84 717.08 386.53C823.23 412.22 862.44 445.53 891.87 435.75L768.23 439.37L315.03 450.95Z" fill="#8CD0F3"/>
<path id="Vector_28" opacity="0.1" d="M315.03 450.95C315.03 450.95 432.28 376.04 513.34 376.04C513.34 376.04 610.93 360.84 717.08 386.53C823.23 412.22 862.44 445.53 891.87 435.75L768.23 439.37L315.03 450.95Z" fill="#8CD0F3"/>
<path id="Vector_29" d="M867.68 565.6H152.6L172.26 486.83L293.86 454.5L867.68 469.58V565.6Z" fill="#121C3F"/>
<path id="Vector_30" d="M905.32 516.38V541.52C905.32 541.52 884.09 556.92 882.16 568.98C882.16 568.98 851.76 576.7 843.08 576.7C842.29 576.7 841.43 576.7 840.53 576.79C841.886 573.151 842.946 569.409 843.7 565.6C845.829 554.911 845.561 543.882 842.915 533.309C840.269 522.736 835.31 512.881 828.397 504.455C821.484 496.029 812.788 489.241 802.935 484.58C793.083 479.92 782.319 477.502 771.42 477.502C760.521 477.502 749.757 479.92 739.905 484.58C730.052 489.241 721.356 496.029 714.443 504.455C707.53 512.881 702.571 522.736 699.925 533.309C697.279 543.882 697.011 554.911 699.14 565.6C700.163 570.753 701.736 575.782 703.83 580.6H662.61C662.61 580.6 662.23 580.73 661.61 581C659.4 582 654.19 584.64 653.44 588.79H311.83L304.83 588.73C306.318 586.233 307.654 583.648 308.83 580.99C311.025 576.066 312.655 570.91 313.69 565.62C315.723 555.517 315.617 545.101 313.378 535.042C311.139 524.983 306.817 515.504 300.691 507.218C294.565 498.931 286.77 492.02 277.809 486.931C268.849 481.841 258.921 478.685 248.666 477.667C238.411 476.649 228.057 477.792 218.271 481.02C208.484 484.249 199.483 489.493 191.847 496.413C184.211 503.333 178.11 511.777 173.937 521.2C169.765 530.622 167.613 540.815 167.62 551.12C167.62 555.978 168.095 560.825 169.04 565.59C170.652 573.659 173.606 581.399 177.78 588.49C172.9 587.3 162.25 583.92 162.25 583.92C162.25 583.92 116.9 579.1 105.32 568.92L107.07 567.71L114.49 562.64L111.11 549.64C110.702 549.092 110.366 548.494 110.11 547.86C109.21 545.69 108.42 541.66 111.6 536.6C116.42 528.88 114.01 501.38 114.01 501.38C114.01 501.38 179.63 456.03 308.94 445.89C308.94 445.89 312.03 448.29 318.41 448.79C322.73 449.14 328.56 448.61 335.97 445.89C335.97 445.89 346.58 450.71 391.97 424.66C391.97 424.66 469.18 371.58 570.51 376.42C570.51 376.42 674.73 370.14 763.51 404.42C801.77 419.18 830.88 427.05 851.63 431.21C870.79 435.06 882.82 435.77 888.33 435.83H888.45C890.25 435.83 891.32 435.83 891.7 435.83H891.86C891.86 435.83 891.86 447.32 892.47 460.89V460.96C892.69 465.68 892.99 470.65 893.41 475.48V475.78C894.57 489.23 896.57 501.45 900.04 503.87L905.32 516.38Z" fill="#2856B8"/>
<path id="Vector_31" d="M124.44 500.28C124.44 500.28 153.51 477.6 189.7 482.43C189.7 482.43 156.77 508.49 141.93 506.8L139.4 504.63L124.4 505.47C124.4 505.47 122.16 501.97 124.44 500.28Z" fill="#8CD0F3"/>
<path id="Vector_32" opacity="0.2" d="M152.66 539.52V552.91C152.66 552.91 151.66 565.7 140.11 566.18L107.11 567.81L114.52 562.74L111.14 549.74C110.73 549.197 110.394 548.601 110.14 547.97C113.14 545.21 120.21 540.55 134.59 539.55L152.66 539.52Z" fill="white"/>
<path id="Vector_33" opacity="0.2" d="M306.22 483.4L331.55 482.4C331.55 482.4 321.3 490.48 314.06 491.21C306.82 491.94 306.22 483.4 306.22 483.4Z" fill="white"/>
<path id="Vector_34" opacity="0.2" d="M359.54 560.24C359.54 560.24 588.61 528.39 643.98 538.52C643.98 538.52 660.26 539.61 666.42 546.12C672.58 552.63 666.42 548.41 666.42 548.41L359.54 560.24Z" fill="white"/>
<path id="Vector_35" opacity="0.5" d="M487.77 470.85C487.77 470.85 490.67 465.42 495.37 465.3L525.89 463.73C525.89 463.73 525.41 467.95 519.98 469.52L487.77 470.85Z" fill="#18218A"/>
<path id="Vector_36" opacity="0.5" d="M664.37 461.68C664.37 461.68 667.27 456.25 671.97 456.13L702.49 454.52C702.49 454.52 702.01 458.74 696.58 460.31L664.37 461.68Z" fill="#18218A"/>
<path id="Vector_37" d="M560.16 387.28L536.74 448.7L452.3 448.79H430.56H411.65H395.3H376.78C376.78 448.79 388.06 440.51 406.23 429.96C412.23 426.46 419.04 422.72 426.43 418.96C433.23 415.48 440.55 411.96 448.24 408.62C454.24 405.98 460.56 403.44 467.02 401.07C496.31 390.36 529.23 383.17 560.16 387.28Z" fill="#8CD0F3"/>
<path id="Vector_38" d="M692.84 432.13C692.84 432.13 657.56 437.36 623.89 441.23C611.02 442.71 598.39 443.99 588.05 444.7L586.61 444.8C582.61 445.06 578.9 445.23 575.75 445.29C570.75 445.38 567.01 445.16 565.14 444.56L574.87 385.81C574.87 385.81 586.87 385.94 604.62 386.81L608.5 387.02C612.19 387.23 616.08 387.47 620.14 387.75C625.94 388.15 632.05 388.63 638.35 389.21C668.77 392 703.23 397.01 725.05 406.03C771.48 425.25 692.84 432.13 692.84 432.13Z" fill="#8CD0F3"/>
<path id="Vector_39" d="M855.44 461.68V477.36C855.44 477.36 830.11 477.72 835.54 472.66C839.054 469.3 842.245 465.617 845.07 461.66L855.44 461.68Z" fill="#8CD0F3"/>
<path id="Vector_40" d="M893.39 475.76L872.82 477.37V458.52C872.82 458.52 882.35 445.13 891.88 459.97L892.43 460.84L893.39 475.76Z" fill="#8CD0F3"/>
<g id="left-wheel">
<path id="Vector_41" d="M241.39 609.99C273.903 609.99 300.26 583.633 300.26 551.12C300.26 518.607 273.903 492.25 241.39 492.25C208.877 492.25 182.52 518.607 182.52 551.12C182.52 583.633 208.877 609.99 241.39 609.99Z" fill="#182A7C"/>
<path id="Vector_42" d="M288.61 551.07C288.631 563.218 283.986 574.91 275.634 583.73C267.281 592.551 255.86 597.827 243.729 598.467C231.599 599.108 219.685 595.065 210.45 587.174C201.215 579.282 195.364 568.144 194.105 556.062C192.847 543.98 196.277 531.876 203.687 522.25C211.098 512.625 221.922 506.213 233.925 504.34C245.927 502.467 258.19 505.275 268.181 512.185C278.172 519.095 285.127 529.579 287.61 541.47C288.269 544.628 288.604 547.844 288.61 551.07Z" fill="#3F8FFE"/>
<path id="Vector_43" opacity="0.5" d="M241.32 591.75C263.737 591.75 281.91 573.532 281.91 551.06C281.91 528.588 263.737 510.37 241.32 510.37C218.903 510.37 200.73 528.588 200.73 551.06C200.73 573.532 218.903 591.75 241.32 591.75Z" fill="#18218A"/>
<path id="Vector_44" d="M254.9 505.64V507.36L241.39 552.09L230.55 504.9C238.593 503.025 246.986 503.28 254.9 505.64V505.64Z" fill="#3F8FFE"/>
<path id="Vector_45" d="M254.8 596.52C247.062 598.812 238.867 599.094 230.99 597.34L241.38 552.09L254.8 596.52Z" fill="#3F8FFE"/>
<path id="Vector_46" d="M288.61 551.07C288.617 556.005 287.854 560.91 286.35 565.61H286.16L241.43 552.1L287.69 541.48C288.319 544.638 288.628 547.85 288.61 551.07Z" fill="#3F8FFE"/>
<path id="Vector_47" d="M241.39 552.09L196.66 565.6H196.31C193.819 557.79 193.375 549.471 195.02 541.44L241.39 552.09Z" fill="#3F8FFE"/>
<path id="Vector_48" d="M241.32 556.25C244.186 556.25 246.51 553.926 246.51 551.06C246.51 548.194 244.186 545.87 241.32 545.87C238.454 545.87 236.13 548.194 236.13 551.06C236.13 553.926 238.454 556.25 241.32 556.25Z" fill="#182A7C"/>
</g>
<g id="right-wheel">
<path id="Vector_49" d="M771.06 609.99C803.573 609.99 829.93 583.633 829.93 551.12C829.93 518.607 803.573 492.25 771.06 492.25C738.547 492.25 712.19 518.607 712.19 551.12C712.19 583.633 738.547 609.99 771.06 609.99Z" fill="#182A7C"/>
<path id="Vector_50" d="M818.29 551.07C818.311 563.218 813.666 574.91 805.314 583.73C796.961 592.551 785.54 597.827 773.409 598.467C761.279 599.108 749.365 595.065 740.13 587.174C730.895 579.282 725.044 568.144 723.785 556.062C722.526 543.98 725.957 531.876 733.367 522.25C740.778 512.625 751.602 506.213 763.604 504.34C775.607 502.467 787.87 505.275 797.861 512.185C807.852 519.095 814.807 529.579 817.29 541.47C817.949 544.628 818.284 547.844 818.29 551.07Z" fill="#3F8FFE"/>
<path id="Vector_51" opacity="0.5" d="M771 591.75C793.417 591.75 811.59 573.532 811.59 551.06C811.59 528.588 793.417 510.37 771 510.37C748.583 510.37 730.41 528.588 730.41 551.06C730.41 573.532 748.583 591.75 771 591.75Z" fill="#18218A"/>
<path id="Vector_52" d="M784.57 505.64V507.36L771.06 552.09L760.22 504.9C768.263 503.025 776.656 503.28 784.57 505.64V505.64Z" fill="#3F8FFE"/>
<path id="Vector_53" d="M784.48 596.52C776.742 598.812 768.547 599.094 760.67 597.34L771.06 552.09L784.48 596.52Z" fill="#3F8FFE"/>
<path id="Vector_54" d="M818.29 551.07C818.297 556.005 817.534 560.91 816.03 565.61H815.8L771.06 552.09L817.32 541.47C817.967 544.629 818.292 547.845 818.29 551.07V551.07Z" fill="#3F8FFE"/>
<path id="Vector_55" d="M771.06 552.09L726.33 565.6H725.98C723.489 557.79 723.045 549.471 724.69 541.44L771.06 552.09Z" fill="#3F8FFE"/>
<path id="Vector_56" d="M771 556.25C773.866 556.25 776.19 553.926 776.19 551.06C776.19 548.194 773.866 545.87 771 545.87C768.134 545.87 765.81 548.194 765.81 551.06C765.81 553.926 768.134 556.25 771 556.25Z" fill="#182A7C"/>
</g>
<path id="Vector_57" opacity="0.2" d="M426.44 419.02L411.65 448.83H395.3L406.23 430.02C412.26 426.52 419.05 422.79 426.44 419.02Z" fill="white"/>
<path id="Vector_58" opacity="0.2" d="M467.02 401.13L452.29 448.8H430.55L448.25 408.66C454.29 406.04 460.57 403.52 467.02 401.13Z" fill="white"/>
<path id="Vector_59" opacity="0.2" d="M620.16 387.8L588.07 444.71L586.63 444.81C582.63 445.07 578.92 445.24 575.77 445.3L604.64 386.87L608.52 387.08C612.16 387.28 616.08 387.52 620.16 387.8Z" fill="white"/>
<path id="Vector_60" opacity="0.2" d="M377.34 448.63L359.02 574.82L512.03 571.47L537.15 449.18L377.34 448.63Z" stroke="white" stroke-miterlimit="10"/>
<path id="Vector_61" opacity="0.5" d="M661.62 580.96C659.41 581.96 654.2 584.6 653.45 588.75H311.83L304.83 588.69C306.318 586.193 307.654 583.608 308.83 580.95L661.62 580.96Z" fill="#18218A"/>
<path id="Vector_62" d="M366.27 672.15C368.6 669.98 370.79 667.42 371.47 664.31C372.15 661.2 370.82 657.46 367.84 656.31C364.51 655.03 360.94 657.31 358.24 659.68C355.54 662.05 352.44 664.68 348.91 664.18C350.728 662.531 352.088 660.439 352.857 658.108C353.627 655.778 353.779 653.287 353.3 650.88C353.145 649.886 352.723 648.953 352.08 648.18C350.23 646.18 346.87 647.05 344.66 648.61C337.66 653.61 335.66 663.14 335.61 671.76C334.9 668.65 335.5 665.41 335.48 662.22C335.46 659.03 334.59 655.5 331.9 653.78C330.225 652.88 328.341 652.438 326.44 652.5C323.27 652.38 319.74 652.7 317.58 655.02C314.89 657.9 315.58 662.73 317.93 665.9C320.28 669.07 323.83 671.06 327.1 673.25C329.725 674.815 331.964 676.951 333.65 679.5C333.85 679.856 334.014 680.231 334.14 680.62H354C358.453 678.363 362.581 675.514 366.27 672.15V672.15Z" fill="#59DEDE"/>
<path id="Vector_63" d="M781.36 688.97C783.193 687.476 784.528 685.46 785.19 683.19C785.69 680.89 784.71 678.14 782.51 677.3C780.05 676.36 777.42 678.06 775.43 679.79C773.44 681.52 771.15 683.48 768.54 683.11C769.881 681.894 770.885 680.351 771.453 678.632C772.021 676.913 772.133 675.076 771.78 673.3C771.667 672.564 771.356 671.873 770.88 671.3C769.51 669.84 767.04 670.47 765.4 671.62C760.2 675.28 758.75 682.34 758.72 688.7C758.2 686.41 758.64 684.02 758.62 681.7C758.6 679.38 757.96 676.7 755.98 675.48C754.752 674.82 753.373 674.493 751.98 674.53C749.64 674.44 747.04 674.68 745.44 676.39C743.44 678.51 743.97 682.08 745.7 684.39C747.43 686.7 750.05 688.19 752.47 689.81C754.41 690.963 756.064 692.539 757.31 694.42C757.457 694.681 757.577 694.956 757.67 695.24H772.32C775.602 693.567 778.643 691.458 781.36 688.97V688.97Z" fill="#59DEDE"/>
<path id="Vector_64" d="M846.36 720.78C848.193 719.286 849.528 717.27 850.19 715C850.69 712.7 849.71 709.95 847.51 709.11C845.05 708.17 842.42 709.87 840.43 711.6C838.44 713.33 836.15 715.29 833.54 714.92C834.881 713.704 835.885 712.161 836.453 710.442C837.021 708.723 837.133 706.886 836.78 705.11C836.667 704.374 836.356 703.683 835.88 703.11C834.51 701.65 832.04 702.28 830.4 703.43C825.2 707.09 823.75 714.15 823.72 720.51C823.2 718.22 823.64 715.83 823.62 713.51C823.6 711.19 822.96 708.51 820.98 707.29C819.752 706.63 818.373 706.303 816.98 706.34C814.64 706.25 812.04 706.49 810.44 708.2C808.44 710.32 808.97 713.89 810.7 716.2C812.43 718.51 815.05 720 817.47 721.62C819.41 722.773 821.064 724.349 822.31 726.23C822.457 726.491 822.577 726.766 822.67 727.05H837.32C840.602 725.377 843.643 723.268 846.36 720.78Z" fill="#59DEDE"/>
<path id="Vector_65" opacity="0.05" d="M533.45 578.36C533.45 578.36 551.14 581.36 555.56 590.91C559.98 600.46 586.56 626.3 586.56 626.3" fill="black"/>
<g id="Group_2" opacity="0.05">
<path id="Vector_66" opacity="0.05" d="M476.7 615.8C473.91 617.04 446.04 608.37 446.04 608.37C445.698 605.675 445.728 602.946 446.13 600.26C444.53 604.12 445.42 610.54 445.42 610.54C445.42 610.54 473.29 619.21 476.08 617.97C477 617.56 477.89 615.18 478.67 612.17C478.05 614.1 477.39 615.52 476.7 615.8Z" fill="black"/>
<path id="Vector_67" opacity="0.05" d="M460.56 536.15C460.332 536.779 460.138 537.42 459.98 538.07C459.98 538.07 453.26 578.2 449.25 593.07C452.96 581 459.96 539.72 460.56 536.15Z" fill="black"/>
<path id="Vector_68" opacity="0.05" d="M501.78 639.34C501.78 639.34 481.03 609.34 481.96 595.34C481.96 595.34 481.74 597.08 481.35 599.54C482.29 614.18 501.16 641.52 501.16 641.52C515.59 641.52 522.04 631.3 524.83 620.57C521.75 630.45 515.24 639.34 501.78 639.34Z" fill="black"/>
</g>
<path id="Vector_69" d="M577.35 652.35C577.35 652.35 578.59 627.58 547 627.89C515.41 628.2 545.76 627.89 545.76 627.89C545.76 627.89 533.37 624.17 517.89 632.89C502.41 641.61 484.75 639.7 484.75 639.7C484.75 639.7 470.5 663.24 483.82 670.05C497.14 676.86 501.47 667.52 501.47 667.52C501.47 667.52 528.72 672.78 534.92 665.66C539.346 670.046 544.964 673.035 551.074 674.254C557.185 675.474 563.519 674.871 569.29 672.52C569.29 672.52 584.78 665.66 577.35 652.35Z" fill="#B1B1B1"/>
</g>
<defs>
<clipPath id="clip0">
<rect width="990.32" height="727.03" fill="white"/>
</clipPath>
</defs>
</svg>
